<svg width="24" height="24" viewBox="0 0 24 24" fill="none" xmlns="http://www.w3.org/2000/svg">
<path fill-rule="evenodd" clip-rule="evenodd" d="M6.07143 2H18.9286C19.2127 2 19.4853 2.11062 19.6862 2.30754C19.8871 2.50445 20 2.77152 20 3.05V21.95C20 22.2285 19.8871 22.4955 19.6862 22.6925C19.4853 22.8894 19.2127 23 18.9286 23H6.07143C5.78727 23 5.51475 22.8894 5.31381 22.6925C5.11288 22.4955 5 22.2285 5 21.95V3.05C5 2.77152 5.11288 2.50445 5.31381 2.30754C5.51475 2.11062 5.78727 2 6.07143 2ZM13.6452 20.8226C13.6452 21.2769 13.2769 21.6452 12.8226 21.6452C12.3683 21.6452 12 21.2769 12 20.8226C12 20.3683 12.3683 20 12.8226 20C13.2769 20 13.6452 20.3683 13.6452 20.8226ZM18 4H7V18H18V4Z" fill="#777E90"/>
</svg>
